<?xml version="1.0" standalone="no"?>
<!DOCTYPE svg PUBLIC "-//W3C//DTD SVG 20010904//EN"
 "http://www.w3.org/TR/2001/REC-SVG-20010904/DTD/svg10.dtd">
<svg version="1.0" xmlns="http://www.w3.org/2000/svg"
 width="512.000000pt" height="512.000000pt" viewBox="0 0 512.000000 512.000000"
 preserveAspectRatio="xMidYMid meet">

<g transform="translate(0.000000,512.000000) scale(0.100000,-0.100000)"
fill="#000000" stroke="none">
<path d="M951 4906 c-53 -30 -50 114 -51 -2383 0 -1780 3 -2328 12 -2348 26
-58 -75 -55 1688 -55 1763 0 1662 -3 1688 55 9 20 12 467 12 1896 0 1605 -2
1874 -14 1897 -18 33 -912 925 -943 941 -35 18 -2360 15 -2392 -3z m2242 -343
c4 -87 7 -271 7 -410 0 -174 4 -260 12 -278 24 -54 32 -55 478 -55 l410 0 0
-1750 0 -1750 -1500 0 -1500 0 0 2200 0 2200 1043 0 1044 0 6 -157z m486 -541
c-150 -1 -273 -1 -275 0 -1 2 -4 128 -6 280 l-3 278 278 -278 277 -277 -271
-3z"/>
<path d="M1923 2961 c-165 -48 -307 -189 -364 -361 -77 -228 -8 -491 172 -654
166 -150 390 -176 599 -71 113 57 222 179 188 210 -18 17 -188 115 -199 115
-5 0 -15 -12 -23 -27 -37 -71 -128 -122 -216 -123 -106 0 -195 63 -249 180
-23 49 -26 67 -26 170 0 103 3 121 26 170 56 120 128 170 245 170 88 0 159
-32 203 -92 17 -23 32 -45 34 -51 2 -8 161 95 195 127 10 10 5 24 -31 72 -48
66 -125 123 -207 156 -78 30 -260 35 -347 9z"/>
<path d="M2540 2973 c0 -5 98 -266 217 -581 l218 -572 113 2 114 3 218 575
218 575 -136 3 c-74 1 -139 -1 -143 -5 -4 -4 -64 -183 -134 -398 -70 -214
-130 -393 -134 -397 -3 -4 -67 175 -141 397 l-135 405 -137 0 c-76 0 -138 -3
-138 -7z"/>
</g>
</svg>
