<svg xmlns="http://www.w3.org/2000/svg" width="682.667" height="682.667" version="1.0" viewBox="0 0 512 512"><path d="M95.1 21.4c-5.3 3-5-11.4-5.1 238.3 0 178 .3 232.8 1.2 234.8 2.6 5.8-7.5 5.5 168.8 5.5s166.2.3 168.8-5.5c.9-2 1.2-46.7 1.2-189.6 0-160.5-.2-187.4-1.4-189.7-1.8-3.3-91.2-92.5-94.3-94.1-3.5-1.8-236-1.5-239.2.3m224.2 34.3c.4 8.7.7 27.1.7 41 0 17.4.4 26 1.2 27.8 2.4 5.4 3.2 5.5 47.8 5.5h41v350H110V40h208.7zm48.6 54.1c-15 .1-27.3.1-27.5 0-.1-.2-.4-12.8-.6-28l-.3-27.8 27.8 27.8 27.7 27.7z"/><path d="M192.3 215.9c-16.5 4.8-30.7 18.9-36.4 36.1-7.7 22.8-.8 49.1 17.2 65.4 16.6 15 39 17.6 59.9 7.1 11.3-5.7 22.2-17.9 18.8-21-1.8-1.7-18.8-11.5-19.9-11.5-.5 0-1.5 1.2-2.3 2.7-3.7 7.1-12.8 12.2-21.6 12.3-10.6 0-19.5-6.3-24.9-18-2.3-4.9-2.6-6.7-2.6-17s.3-12.1 2.6-17c5.6-12 12.8-17 24.5-17 8.8 0 15.9 3.2 20.3 9.2 1.7 2.3 3.2 4.5 3.4 5.1.2.8 16.1-9.5 19.5-12.7 1-1 .5-2.4-3.1-7.2-4.8-6.6-12.5-12.3-20.7-15.6-7.8-3-26-3.5-34.7-.9M254 214.7c0 .5 9.8 26.6 21.7 58.1l21.8 57.2 11.3-.2 11.4-.3L342 272l21.8-57.5-13.6-.3c-7.4-.1-13.9.1-14.3.5s-6.4 18.3-13.4 39.8c-7 21.4-13 39.3-13.4 39.7-.3.4-6.7-17.5-14.1-39.7L281.5 214h-13.7c-7.6 0-13.8.3-13.8.7"/></svg>